<svg width="16" height="17" viewBox="0 0 16 17" fill="none" xmlns="http://www.w3.org/2000/svg">
<path fill-rule="evenodd" clip-rule="evenodd" d="M0.666667 0.605835C0.489856 0.605835 0.320287 0.676073 0.195262 0.801097C0.070238 0.926122 0 1.09569 0 1.2725V15.9392C0 16.116 0.070238 16.2855 0.195262 16.4106C0.320287 16.5356 0.489856 16.6058 0.666667 16.6058H15.3333C15.5101 16.6058 15.6797 16.5356 15.8047 16.4106C15.9298 16.2855 16 16.116 16 15.9392V1.2725C16 1.09569 15.9298 0.926122 15.8047 0.801097C15.6797 0.676073 15.5101 0.605835 15.3333 0.605835H0.666667ZM7.13867 11.7445L13.1387 5.7445L12.196 4.8005L6.66667 10.3298L3.80533 7.46717L2.86133 8.41117L6.19467 11.7445C6.25659 11.8066 6.33016 11.8558 6.41116 11.8895C6.49215 11.9231 6.57898 11.9404 6.66667 11.9404C6.75436 11.9404 6.84119 11.9231 6.92218 11.8895C7.00317 11.8558 7.07674 11.8066 7.13867 11.7445Z" fill="#F24822"/>
</svg>
