<svg viewBox="0 0 24 24" xmlns="http://www.w3.org/2000/svg">
  <!-- Background -->
  <rect width="24" height="24" fill="white" rx="2"/>
  
  <!-- Dashboard grid layout -->
  <!-- Top left card -->
  <rect x="2" y="2" width="9" height="6" fill="white" stroke="#e0e0e0" stroke-width="0.5" rx="1"/>
  
  <!-- Top right card -->
  <rect x="13" y="2" width="9" height="6" fill="white" stroke="#e0e0e0" stroke-width="0.5" rx="1"/>
  
  <!-- Bottom left card -->
  <rect x="2" y="10" width="9" height="6" fill="white" stroke="#e0e0e0" stroke-width="0.5" rx="1"/>
  
  <!-- Bottom right card -->
  <rect x="13" y="10" width="9" height="6" fill="white" stroke="#e0e0e0" stroke-width="0.5" rx="1"/>
  
  <!-- Bottom full width card -->
  <rect x="2" y="18" width="20" height="4" fill="white" stroke="#e0e0e0" stroke-width="0.5" rx="1"/>
  
  <!-- Content elements -->
  <!-- Chart line in top left -->
  <polyline points="3,6 5,5 7,4 9,3 10,4" fill="none" stroke="#d0d0d0" stroke-width="0.5"/>
  
  <!-- Bar chart in top right -->
  <rect x="14" y="6" width="1" height="1.5" fill="#d0d0d0"/>
  <rect x="16" y="5" width="1" height="2.5" fill="#d0d0d0"/>
  <rect x="18" y="4" width="1" height="3.5" fill="#d0d0d0"/>
  <rect x="20" y="5.5" width="1" height="2" fill="#d0d0d0"/>
  
  <!-- Pie chart in bottom left -->
  <circle cx="6.5" cy="13" r="2" fill="none" stroke="#d0d0d0" stroke-width="0.5"/>
  <path d="M 6.5 11 A 2 2 0 0 1 8.5 13 L 6.5 13 Z" fill="#d0d0d0"/>
  
  <!-- Data rows in bottom right -->
  <line x1="14" y1="12" x2="21" y2="12" stroke="#d0d0d0" stroke-width="0.3"/>
  <line x1="14" y1="13.5" x2="21" y2="13.5" stroke="#d0d0d0" stroke-width="0.3"/>
  <line x1="14" y1="15" x2="21" y2="15" stroke="#d0d0d0" stroke-width="0.3"/>
  
  <!-- Table rows in bottom card -->
  <line x1="3" y1="19.5" x2="21" y2="19.5" stroke="#d0d0d0" stroke-width="0.3"/>
  <line x1="3" y1="20.5" x2="21" y2="20.5" stroke="#d0d0d0" stroke-width="0.3"/>
</svg>